<svg width="256" height="256" viewBox="0 0 256 256" fill="none" xmlns="http://www.w3.org/2000/svg">
<g clip-path="url(#clip0_656_432)">
<rect width="256" height="256" rx="64" fill="#0E1012"/>
<path d="M173.225 131.12C173.225 120.816 177.257 112.976 185.321 109.392V108.72H132.457V109.392C140.297 112.976 144.553 120.816 144.553 131.12V189.136C144.553 202.128 137.833 210.192 126.409 210.192C102.217 210.192 91.0173 183.536 91.0173 127.312C91.0173 78.48 100.649 49.36 123.497 49.36C142.537 49.36 152.617 68.176 159.561 91.024H160.457L173.001 48.016C158.889 44.208 143.881 42.416 131.337 42.64C85.6413 42.64 59.2093 79.152 59.2093 131.344C59.2093 189.36 94.6013 216.24 128.425 216.24C149.705 216.24 169.865 213.776 183.305 211.76V211.088C176.585 208.176 173.225 200.336 173.225 190.032V131.12Z" fill="#F3F6FA"/>
</g>
<defs>
<clipPath id="clip0_656_432">
<rect width="256" height="256" rx="64" fill="white"/>
</clipPath>
</defs>
</svg>
