<svg width="32" height="32" viewBox="0 0 32 32" fill="none" xmlns="http://www.w3.org/2000/svg">
<g clip-path="url(#clip0_656_435)">
<rect width="32" height="32" rx="16" fill="#0E1012"/>
<path d="M21.6957 16.3722C21.6957 15.0492 22.2357 14.0502 23.2617 13.5912V13.5102H15.8097V13.5912C16.8357 14.0502 17.3757 15.0492 17.3757 16.3722V23.1222C17.3757 24.6612 16.6467 25.6062 15.4587 25.6062C12.9207 25.6062 11.8137 22.5822 11.8137 15.7512C11.8137 9.91919 12.8127 6.43619 15.2157 6.43619C17.5377 6.43619 18.7257 9.00119 19.8057 11.9172H19.9137L21.6417 6.08519C19.7247 5.65319 17.6997 5.51819 16.1067 5.54519C10.4097 5.54519 7.06168 9.94619 7.06168 16.2372C7.06168 23.3922 11.6517 26.4702 15.8637 26.4702C18.6447 26.4702 21.3177 26.1462 23.0187 25.9302V25.8492C22.1547 25.4442 21.6957 24.3912 21.6957 23.0682V16.3722Z" fill="#F3F6FA"/>
</g>
<defs>
<clipPath id="clip0_656_435">
<rect width="32" height="32" rx="16" fill="white"/>
</clipPath>
</defs>
</svg>
